<svg xmlns="http://www.w3.org/2000/svg" version="1.1" xmlns:xlink="http://www.w3.org/1999/xlink" xmlns:svgjs="http://svgjs.com/svgjs" width="100" height="100"><svg xmlns="http://www.w3.org/2000/svg" xmlns:xlink="http://www.w3.org/1999/xlink" fill="#ED6237" version="1.1" x="0px" y="0px" viewBox="0 0 100 100" xml:space="preserve"><g><g><path d="M70.4277344,13.9997206H47.7255859H36.3808594h-0.0048828c-0.0005493,0-0.0010986,0.0002441-0.0016479,0.0002441    c-6.805542,0.0036621-12.3421021,5.515626-12.3421021,12.2907724v47.4189415    c0,6.7763672,5.5400391,12.2900391,12.3486328,12.2900391h34.046875c3.0546875,0,5.5400391-2.4746094,5.5400391-5.515625    V66.9352646V19.5163231C75.9677734,16.4743309,73.4824219,13.9997206,70.4277344,13.9997206z M46.7255859,15.9997206v10.1787119    c0,0.0234375,0,0.0859375-0.0800781,0.1240234c-0.0839844,0.0419922-0.1396484-0.0029297-0.1572266-0.0166016    l-3.1054688-2.4716797c-0.7832031-0.625-1.8789063-0.625-2.6640625,0l-3.1054688,2.4716797    c-0.0166016,0.0136719-0.0722656,0.0576172-0.1572266,0.0166016c-0.0800781-0.0380859-0.0800781-0.1005859-0.0800781-0.1240234    V15.9997206H46.7255859z M26.0322266,66.9997177V26.2907372c0-5.3374023,4.107666-9.736084,9.34375-10.2404785v10.1281738    c0,0.8271484,0.4638672,1.5654297,1.2109375,1.9257813c0.75,0.3603516,1.6210938,0.2636719,2.2724609-0.2539063    l3.1054688-2.4716797c0.0507813-0.0390625,0.1230469-0.0390625,0.171875,0l3.1054688,2.4716797    c0.390625,0.3105469,0.859375,0.4697266,1.3339844,0.4697266c0.3173828,0,0.6376953-0.0712891,0.9384766-0.2158203    c0.7470703-0.3603516,1.2109375-1.0986328,1.2109375-1.9257813V15.9997206h21.7021484    c1.9521484,0,3.5400391,1.5771494,3.5400391,3.5166025v43.1865234c-0.0388184-0.0322266-0.0835571-0.0571289-0.123291-0.0883789    c-0.0784912-0.0617676-0.1611328-0.1162109-0.2429199-0.1738281c-0.1739502-0.1223145-0.3535767-0.2348633-0.5414429-0.3366699    c-0.0934448-0.0507813-0.1860962-0.1003418-0.2827148-0.145752c-0.206604-0.097168-0.4206543-0.1779785-0.6403198-0.2492676    c-0.0813599-0.0263672-0.1589966-0.0593262-0.2420044-0.0820313c-0.2910767-0.0795898-0.5895996-0.140625-0.8980103-0.1711426    c-0.1474609-0.0361328-0.2675781-0.0361328-0.3310547-0.0361328h-0.2382813h-34.046875    c-3.3085938,0-6.4091797,1.2783203-8.7285156,3.598629c-0.300415,0.2988281-0.5819702,0.6113281-0.847168,0.9343262    c-0.0805664,0.0981445-0.149353,0.2033691-0.2265625,0.3034668c-0.1763306,0.2287598-0.3527832,0.4572754-0.5116577,0.6962891    C26.0561523,66.9687119,26.0429077,66.9836044,26.0322266,66.9997177z M70.4277344,83.9997177h-34.046875    c-5.7060547,0-10.3486328-4.6162109-10.3486328-10.2900391c0-2.7451172,1.0761719-5.328125,3.0322266-7.2753906    c1.9443359-1.9443359,4.5419922-3.0146446,7.3164063-3.0146446h34.046875    c0.0664063,0.0009766,0.1337891-0.0058594,0.1982422,0.0068359c0.0332031,0.0058594,0.0664063,0.0097656,0.0996094,0.0126953    c1.8183594,0.1416016,3.2421875,1.676754,3.2421875,3.4960899v2.3876953h-8.0839844c-0.5527344,0-1,0.4472656-1,1s0.4472656,1,1,1    h8.0839844v4.7734375h-8.0839844c-0.5527344,0-1,0.4472656-1,1s0.4472656,1,1,1h8.0839844v2.3876953    C73.9677734,82.4225693,72.3798828,83.9997177,70.4277344,83.9997177z"></path><path d="M46.1582031,46.3835106v2.7163086c-1.3009033,0.328125-2.2705078,1.4985352-2.2705078,2.8999023v0.5166016    c0,1.6542969,1.3457031,3,3,3h11.8886719c1.6542969,0,3-1.3457031,3-3v-0.5166016    c0-1.4008789-0.9691772-2.5712891-2.2695313-2.8996582v-2.7165527c2.2636719-0.4628906,3.9716797-2.4619141,3.9716797-4.8515625    c0-2.7304688-2.2304688-4.9511719-4.9716797-4.9511719c-0.2412109,0-0.4804688,0.0175781-0.7167969,0.0537109    c-0.1962891-2.5527344-2.3447266-4.5703125-4.9580078-4.5703125c-2.6123047,0-4.7607422,2.0185547-4.9570313,4.5712891    c-0.2373047-0.0361328-0.4765625-0.0546875-0.7167969-0.0546875c-2.7421875,0-4.9726563,2.2207031-4.9726563,4.9511719    C42.1855469,43.9215965,43.8935547,45.9215965,46.1582031,46.3835106z M59.7763672,52.5163231c0,0.5517578-0.4482422,1-1,1    H46.8876953c-0.5517578,0-1-0.4482422-1-1v-0.5166016c0-0.5517578,0.4482422-1,1-1h0.2705078h11.3486328h0.2695313    c0.5517578,0,1,0.4482422,1,1V52.5163231z M47.1582031,38.5807762c0.4677734,0,0.9345703,0.1230469,1.3876953,0.3662109    c0.3554688,0.1923828,0.7919922,0.1503906,1.1054688-0.1064453c0.3125-0.2548828,0.4414063-0.6738281,0.3251953-1.0615234    c-0.078125-0.2607422-0.1162109-0.5097656-0.1162109-0.7626953c0-1.6279297,1.3330078-2.9521484,2.9716797-2.9521484    s2.9726563,1.3242188,2.9726563,2.9521484c0,0.2246094-0.0390625,0.4677734-0.125,0.7910156    c-0.1035156,0.3867188,0.0332031,0.7978516,0.3476563,1.0449219c0.3173828,0.2490234,0.7490234,0.2841797,1.0986328,0.0908203    c0.4394531-0.2402344,0.9042969-0.3623047,1.3808594-0.3623047c1.6386719,0,2.9716797,1.3242188,2.9716797,2.9511719    c0,1.6279297-1.3330078,2.9521484-2.9716797,2.9521484c-0.5527344,0-1,0.4472656-1,1v3.515625h-9.3486328v-3.515625    c0-0.5527344-0.4472656-1-1-1c-1.6386719,0-2.9726563-1.3242188-2.9726563-2.9521484    C44.1855469,39.904995,45.5195313,38.5807762,47.1582031,38.5807762z"></path></g></g></svg><style>@media (prefers-color-scheme: light) { :root { filter: none; } }
@media (prefers-color-scheme: dark) { :root { filter: contrast(0.625) brightness(2.5); } }
</style></svg>